# xmcd
#
# Track frame offsets:
#	150
#	20080
#	32610
#	51902
#	64837
#	76292
#	87300
#	106250
#	118287
#	136225
#	150807
#	168017
#	183742
#	207057
#	222787
#	241430
#	255807
#
# Disc length: 3605 seconds
#
# Revision: 3
# Processed by: cddbd v1.5.2PL0 Copyright (c) Steve Scherf et al.
# Submitted via: audiograbber 1.83.01
#
DISCID=da0e1311
DTITLE=Various Artist - Hits Of The 70's - Disc 2
DYEAR=1988
DGENRE=Pop
TTITLE0=Russell Morris - Sweet Sweet Love
TTITLE1=Two Man Band - Up There Cazaly
TTITLE2=Flash And The Pan - Hey St. Peter
TTITLE3=Bobbie Gentry - I'll Never Fall In Love Again
TTITLE4=Jigsaw - Yellow River
TTITLE5=Liv Maessen - Knock Knock, Who's There
TTITLE6=The Hollies - He Ain't Heavy, He's My Brother
TTITLE7=Shirley Bassey - Diamonds Are Forever
TTITLE8=Stevie Wright - Evie (Part 1)
TTITLE9=John Farnham - Rock Me Baby
TTITLE10=Hot Chocolate - Emma
TTITLE11=Axiom - Little Ray Of Sunshine
TTITLE12=Rod Stewart - Maggie May
TTITLE13=Terry Jacks - Seasons In The Sun
TTITLE14=The Kinks - Lola
TTITLE15=Hank B. Marvin - Sacha
TTITLE16=Moir Sisters - Good Morning (How Are You)
EXTD=
EXTT0=
EXTT1=
EXTT2=
EXTT3=
EXTT4=
EXTT5=
EXTT6=
EXTT7=
EXTT8=
EXTT9=
EXTT10=
EXTT11=
EXTT12=
EXTT13=
EXTT14=
EXTT15=
EXTT16=
PLAYORDER=
